<svg width="6" height="6" viewBox="0 0 6 6" fill="none" xmlns="http://www.w3.org/2000/svg">
<path fill-rule="evenodd" clip-rule="evenodd" d="M4.06586 2.99934L5.66632 1.39859C5.73652 1.32856 5.79223 1.24539 5.83026 1.15381C5.86829 1.06224 5.8879 0.964067 5.88796 0.864911C5.88802 0.765754 5.86853 0.667558 5.83062 0.575938C5.7927 0.484318 5.73709 0.401071 5.66698 0.330957C5.59687 0.260843 5.51362 0.205237 5.422 0.16732C5.33038 0.129403 5.23218 0.109918 5.13303 0.109979C5.03387 0.11004 4.9357 0.129646 4.84412 0.167677C4.75255 0.205707 4.66937 0.261415 4.59935 0.331616L2.99888 1.93236L1.39845 0.331616C1.32845 0.261282 1.24527 0.205449 1.15367 0.167313C1.06206 0.129177 0.963831 0.109489 0.864604 0.109375C0.765377 0.109262 0.667103 0.128726 0.57541 0.166652C0.483717 0.204579 0.400407 0.260222 0.330253 0.330396C0.260098 0.400569 0.204477 0.483893 0.166575 0.575596C0.128673 0.6673 0.109236 0.765579 0.109376 0.864806C0.109516 0.964033 0.129231 1.06226 0.167391 1.15385C0.205551 1.24545 0.261407 1.32862 0.331759 1.39859L1.9319 2.99934L0.331759 4.59952C0.261407 4.66949 0.205551 4.75266 0.167391 4.84425C0.129231 4.93585 0.109516 5.03408 0.109376 5.1333C0.109236 5.23253 0.128673 5.33081 0.166575 5.42251C0.204477 5.51421 0.260098 5.59754 0.330253 5.66771C0.400407 5.73789 0.483717 5.79353 0.57541 5.83146C0.667103 5.86938 0.765377 5.88885 0.864604 5.88873C0.963831 5.88862 1.06206 5.86893 1.15367 5.83079C1.24527 5.79266 1.32845 5.73683 1.39845 5.66649L2.99888 4.06632L4.59935 5.66649C4.66937 5.73669 4.75255 5.7924 4.84412 5.83043C4.9357 5.86846 5.03387 5.88807 5.13303 5.88813C5.23218 5.88819 5.33038 5.86871 5.422 5.83079C5.51362 5.79287 5.59687 5.73727 5.66698 5.66715C5.73709 5.59704 5.7927 5.51379 5.83062 5.42217C5.86853 5.33055 5.88802 5.23235 5.88796 5.1332C5.8879 5.03404 5.86829 4.93587 5.83026 4.8443C5.79223 4.75272 5.73652 4.66954 5.66632 4.59952L4.06586 2.99934Z" fill="#512B58"/>
</svg>
