<svg width="16" height="16" viewBox="0 0 16 16" fill="none" xmlns="http://www.w3.org/2000/svg">
<path fill-rule="evenodd" clip-rule="evenodd" d="M13.9446 11.3978C13.8331 11.3977 13.7227 11.4196 13.6196 11.4622C13.5166 11.5049 13.423 11.5674 13.3441 11.6463C13.2653 11.7251 13.2027 11.8187 13.1601 11.9218C13.1175 12.0248 13.0956 12.1353 13.0957 12.2468V13.0957H2.90487V12.2468C2.90518 12.1351 2.88345 12.0245 2.84093 11.9212C2.79841 11.8179 2.73593 11.7241 2.65707 11.645C2.57821 11.5659 2.48452 11.5031 2.38137 11.4603C2.27822 11.4175 2.16763 11.3955 2.05595 11.3955C1.94427 11.3955 1.83368 11.4175 1.73053 11.4603C1.62738 11.5031 1.53369 11.5659 1.45483 11.645C1.37597 11.7241 1.31349 11.8179 1.27097 11.9212C1.22845 12.0245 1.20672 12.1351 1.20703 12.2468V13.9453C1.20699 14.0568 1.22892 14.1672 1.27156 14.2702C1.31421 14.3733 1.37674 14.4669 1.45557 14.5457C1.53441 14.6246 1.62801 14.6871 1.73102 14.7298C1.83404 14.7724 1.94445 14.7943 2.05595 14.7943H13.9446C14.0562 14.7944 14.1666 14.7725 14.2697 14.7299C14.3728 14.6873 14.4665 14.6247 14.5454 14.5459C14.6243 14.467 14.6869 14.3734 14.7295 14.2704C14.7722 14.1673 14.7942 14.0569 14.7942 13.9453V12.2468C14.7942 12.1352 14.7722 12.0248 14.7295 11.9217C14.6869 11.8187 14.6243 11.7251 14.5454 11.6462C14.4665 11.5674 14.3728 11.5048 14.2697 11.4622C14.1666 11.4196 14.0562 11.3977 13.9446 11.3978ZM6.05335 5.20446L7.15101 4.10612V10.5482C7.15069 10.6599 7.17243 10.7706 7.21497 10.8739C7.25751 10.9772 7.32002 11.0711 7.39891 11.1502C7.4778 11.2294 7.57153 11.2921 7.67472 11.3349C7.77791 11.3778 7.88854 11.3998 8.00027 11.3998C8.112 11.3998 8.22263 11.3778 8.32582 11.3349C8.42901 11.2921 8.52274 11.2294 8.60163 11.1502C8.68053 11.0711 8.74303 10.9772 8.78557 10.8739C8.82811 10.7706 8.84985 10.6599 8.84953 10.5482V4.10612L9.94788 5.20446C10.0267 5.28352 10.1203 5.34626 10.2234 5.3891C10.3265 5.43193 10.4371 5.45401 10.5487 5.45408C10.6603 5.45414 10.7709 5.4322 10.874 5.38949C10.9772 5.34679 11.0709 5.28416 11.1498 5.2052C11.2287 5.12623 11.2913 5.03248 11.334 4.92931C11.3766 4.82614 11.3985 4.71557 11.3984 4.60393C11.3982 4.4923 11.3761 4.38178 11.3332 4.27871C11.2903 4.17564 11.2275 4.08203 11.1484 4.00326L8.60087 1.45573C8.52206 1.37689 8.42848 1.31434 8.32548 1.27167C8.22249 1.22899 8.1121 1.20703 8.00061 1.20703C7.88913 1.20703 7.77874 1.22899 7.67574 1.27167C7.57275 1.31434 7.47917 1.37689 7.40035 1.45573L4.85213 4.00326C4.69354 4.16269 4.60464 4.37852 4.60493 4.6034C4.60523 4.82829 4.6947 5.04388 4.85371 5.20289C5.01273 5.36191 5.22832 5.45138 5.45321 5.45167C5.67809 5.45197 5.89391 5.36306 6.05335 5.20446Z" fill="#512B58"/>
</svg>
